<svg width="38" height="38" viewBox="0 0 38 38" fill="none" xmlns="http://www.w3.org/2000/svg">
<path d="M9.6558 33.4283C8.75033 33.1834 7.77806 32.4783 7.39955 31.7881C6.95424 30.9642 6.9765 31.6248 6.9765 18.9631C6.9765 6.30134 6.95424 6.96189 7.39955 6.13806C7.65189 5.67791 8.28275 5.099 8.83939 4.81697C9.75971 4.35681 9.15111 4.37908 20.3433 4.37908C25.9691 4.37908 30.6226 4.40135 30.6894 4.42361C31.0382 4.5572 31.0234 4.13416 31.0234 16.358V27.8248L30.8453 28.0326L30.6671 28.2404L20.321 28.2775L9.98236 28.3146L9.52221 28.5299C9.01752 28.7599 8.52025 29.2349 8.34213 29.6506C8.05267 30.3556 8.34213 31.2834 9.01752 31.7806C9.79681 32.367 8.83939 32.3224 20.2468 32.3447L30.4296 32.3596V32.9533V33.5471L20.2468 33.5396C11.5929 33.5396 9.99721 33.5174 9.6558 33.4283ZM9.3515 27.2681C9.589 27.1791 10.0269 27.1271 10.9101 27.0974L12.1347 27.0529L12.1718 23.5053L12.2089 19.9502L12.387 19.8092C12.5874 19.6459 12.7804 19.631 13.0105 19.7572C13.0995 19.8017 13.7675 20.2842 14.4874 20.8334C15.2148 21.3752 15.8382 21.8205 15.8828 21.8205C15.9273 21.8205 16.573 21.3529 17.3226 20.7888C18.0722 20.2174 18.7624 19.7275 18.8663 19.7053C19.0222 19.6681 19.4081 19.7869 19.5343 19.9131C19.5417 19.9205 19.5714 21.531 19.5937 23.4904L19.6308 27.0529L24.6999 27.0752L29.7617 27.09V16.3283V5.56658L19.9128 5.58142L10.0566 5.60369L9.64096 5.77439C9.10658 5.98963 8.59447 6.43494 8.39408 6.86541L8.23822 7.19939V17.5158V27.8322L8.63158 27.6096C8.84681 27.4908 9.16596 27.3349 9.3515 27.2681ZM18.4062 24.2623C18.4062 22.0654 18.3839 21.5236 18.3171 21.5756C16.766 22.7631 16.0757 23.2306 15.8828 23.2306C15.7269 23.2306 15.3855 23.0228 14.6062 22.4439C14.0199 22.006 13.5003 21.6201 13.4558 21.5756C13.3816 21.5236 13.3593 22.0654 13.3593 24.2623V27.0158H15.8828H18.4062V24.2623Z" fill="#E8BD84"/>
</svg>
