<svg width="38" height="26" viewBox="0 0 38 26" fill="none" xmlns="http://www.w3.org/2000/svg">
<path d="M0.686416 0.085113C0.196566 0.297137 -0.0812588 0.860099 0.0210979 1.40844C0.0868986 1.75206 0.452458 2.15418 0.781461 2.24922C0.971552 2.30771 6.52074 2.32234 18.8693 2.30771L36.6867 2.28578L36.8841 2.13225C37.2716 1.84711 37.3886 1.61315 37.3886 1.15255C37.3886 0.691942 37.2716 0.457984 36.8841 0.172847L36.6867 0.0193124L18.7962 0.00468993C4.03494 -0.00993252 0.869196 0.00468993 0.686416 0.085113Z" fill="#F5F5F5"/>
<path d="M0.686416 11.7834C0.196566 11.9954 -0.0812588 12.5583 0.0210979 13.1067C0.0868986 13.4503 0.452458 13.8524 0.781461 13.9475C0.971552 14.006 6.52074 14.0206 18.8693 14.006L36.6867 13.984L36.8841 13.8305C37.2716 13.5454 37.3886 13.3114 37.3886 12.8508C37.3886 12.3902 37.2716 12.1562 36.8841 11.8711L36.6867 11.7176L18.7962 11.7029C4.03494 11.6883 0.869196 11.7029 0.686416 11.7834Z" fill="#F5F5F5"/>
<path d="M0.686416 23.4811C0.196566 23.6931 -0.0812588 24.2561 0.0210979 24.8044C0.0868986 25.1481 0.452458 25.5502 0.781461 25.6452C0.971552 25.7037 6.52074 25.7183 18.8693 25.7037L36.6867 25.6818L36.8841 25.5282C37.2716 25.2431 37.3886 25.0091 37.3886 24.5485C37.3886 24.0879 37.2716 23.854 36.8841 23.5688L36.6867 23.4153L18.7962 23.4007C4.03494 23.3861 0.869196 23.4007 0.686416 23.4811Z" fill="#F5F5F5"/>
</svg>
