<svg width="18" height="18" viewBox="0 0 18 18" fill="none" xmlns="http://www.w3.org/2000/svg">
<path d="M0 1.125C0 0.50368 0.50368 0 1.125 0H3.54698C4.09693 0 4.56627 0.39759 4.65668 0.940051L5.4884 5.93041C5.5696 6.41757 5.32356 6.90072 4.88182 7.12159L3.14017 7.99242C4.396 11.1131 6.88689 13.604 10.0076 14.8598L10.8784 13.1182C11.0993 12.6764 11.5824 12.4304 12.0696 12.5116L17.0599 13.3433C17.6024 13.4337 18 13.9031 18 14.453V16.875C18 17.4963 17.4963 18 16.875 18H14.625C6.54784 18 0 11.4522 0 3.375V1.125Z" fill="black"/>
</svg>
