<svg width="18" height="16" viewBox="0 0 18 16" fill="none" xmlns="http://www.w3.org/2000/svg">
<path d="M17.9727 2.2174C17.5083 2.83692 16.9469 3.37733 16.3102 3.81776C16.3102 3.97959 16.3102 4.14142 16.3102 4.31225C16.3153 7.2511 15.1414 10.0691 13.0517 12.1345C10.9619 14.1999 8.13108 15.3399 5.19393 15.2989C3.49587 15.3046 1.81955 14.9169 0.2963 14.1661C0.21416 14.1302 0.16119 14.049 0.1615 13.9593V13.8604C0.1615 13.7313 0.26611 13.6267 0.39515 13.6267C2.0643 13.5716 3.6739 12.9929 4.99622 11.9724C3.48541 11.9419 2.12607 11.0469 1.50048 9.6707C1.46889 9.5956 1.47872 9.5093 1.52645 9.4432C1.57417 9.3771 1.65288 9.3407 1.73413 9.3471C2.1933 9.3932 2.65706 9.3505 3.10008 9.2212C1.43227 8.875 0.17909 7.4904 -0.000260003 5.7957C-0.00663 5.7144 0.0297999 5.6357 0.0958799 5.5879C0.16195 5.5402 0.24812 5.5303 0.32326 5.562C0.77082 5.7595 1.25397 5.8635 1.74312 5.8676C0.28172 4.90846 -0.34951 3.08405 0.20643 1.42622C0.26382 1.26513 0.40169 1.14612 0.56938 1.11294C0.73706 1.07975 0.90984 1.13728 1.0242 1.26439C2.99627 3.36325 5.70592 4.61396 8.58178 4.75279C8.50818 4.45885 8.47198 4.15676 8.47398 3.85372C8.50088 2.26472 9.48408 0.849212 10.9633 0.269872C12.4424 -0.309458 14.1248 0.0620322 15.2229 1.21044C15.9713 1.06785 16.6949 0.816452 17.3706 0.464212C17.4201 0.433312 17.4829 0.433312 17.5324 0.464212C17.5633 0.513732 17.5633 0.576522 17.5324 0.626042C17.2051 1.37552 16.6522 2.00412 15.9508 2.42419C16.565 2.35296 17.1684 2.20807 17.7481 1.99264C17.7969 1.95942 17.861 1.95942 17.9098 1.99264C17.9507 2.01134 17.9813 2.04711 17.9934 2.09042C18.0055 2.13373 17.9979 2.18018 17.9727 2.2174Z" fill="#3E3E3E"/>
</svg>
